<?xml version="1.0" standalone="no"?>
<!DOCTYPE svg PUBLIC "-//W3C//DTD SVG 20010904//EN"
 "http://www.w3.org/TR/2001/REC-SVG-20010904/DTD/svg10.dtd">
<svg version="1.0" xmlns="http://www.w3.org/2000/svg"
 width="300.000000pt" height="225.000000pt" viewBox="0 0 300.000000 225.000000"
 preserveAspectRatio="xMidYMid meet">
<metadata>
Created by potrace 1.10, written by Peter Selinger 2001-2011
</metadata>
<g transform="translate(0.000000,225.000000) scale(0.050000,-0.050000)"
fill="#528fe5" stroke="none">
<path d="M760 3484 l0 -177 440 9 440 9 0 -352 0 -353 200 0 200 0 0 352 0
352 445 -7 445 -7 5 175 6 175 -1091 0 -1090 0 0 -176z m1145 -18 c-36 -5 -94
-5 -130 0 -36 4 -6 8 65 8 72 0 101 -4 65 -8z m85 -46 c-7 -11 -28 -20 -46
-20 -24 -1 -27 -5 -10 -16 18 -12 13 -29 -20 -65 -39 -43 -44 -70 -42 -224 1
-157 -2 -175 -35 -175 -41 0 -52 40 -12 41 14 0 7 10 -14 23 -39 22 -39 23 0
38 34 13 34 15 4 17 -19 0 -35 10 -35 21 0 11 16 21 35 22 33 3 33 3 0 12 -19
5 -35 17 -35 27 0 11 16 20 35 21 33 3 33 3 0 12 -19 5 -35 17 -35 27 0 11 16
19 35 19 30 1 31 3 5 20 -27 18 -27 22 0 40 26 17 26 19 -3 20 -29 0 -65 64
-59 105 1 8 -11 15 -28 15 -16 0 -30 9 -30 20 0 12 64 20 151 20 96 0 147 -7
139 -20z"/>
<path d="M4838 3652 c-4 -5 -5 -239 -2 -520 l5 -512 200 0 199 0 0 520 0 520
-197 0 c-108 0 -200 -4 -205 -8z"/>
<path d="M753 2527 c-41 -42 -8 -67 89 -67 l103 0 -8 -245 c-7 -241 -6 -245
38 -251 45 -7 45 -5 45 245 l0 251 90 0 c77 0 90 6 90 40 0 40 -409 65 -447
27z"/>
<path d="M1267 2255 c3 -271 5 -285 43 -285 36 0 41 15 46 146 l6 147 70 29
c99 41 108 27 108 -165 0 -165 1 -170 45 -163 43 6 45 12 38 186 -9 236 -56
280 -210 200 -32 -17 -60 -30 -62 -30 -2 0 0 50 5 110 9 106 7 110 -41 110
l-50 0 2 -285z"/>
<path d="M4020 2290 l0 -250 -50 0 c-37 0 -50 -11 -50 -40 0 -31 13 -40 56
-40 111 0 122 26 133 315 l10 265 -50 0 -49 0 0 -250z"/>
<path d="M4236 2529 c-24 -24 10 -89 46 -89 27 0 38 14 38 50 0 47 -52 71 -84
39z"/>
<path d="M1783 2343 c-86 -86 -68 -316 28 -360 165 -75 292 6 292 187 0 186
-199 294 -320 173z m198 -44 c65 -34 56 -232 -11 -263 -96 -43 -150 4 -150
133 0 137 59 185 161 130z"/>
<path d="M2218 2372 c-34 -35 -5 -402 32 -402 36 0 41 15 46 153 6 152 6 154
69 176 88 30 102 7 103 -173 2 -142 6 -156 42 -156 37 0 39 11 33 145 l-7 145
66 28 c106 45 118 28 118 -160 0 -155 3 -168 40 -168 37 0 40 13 40 186 0 237
-45 284 -199 205 -50 -26 -60 -26 -81 0 -32 38 -106 37 -181 -2 -53 -27 -59
-27 -59 0 0 28 -41 43 -62 23z"/>
<path d="M2945 2367 c-76 -31 -22 -72 77 -59 105 14 158 -6 158 -60 0 -20 -30
-28 -109 -28 -128 0 -171 -33 -171 -130 0 -113 103 -160 219 -100 50 26 58 26
68 0 36 -94 73 -26 73 136 0 234 -114 322 -315 241z m235 -246 c0 -72 -168
-116 -193 -51 -23 62 9 90 102 90 77 0 91 -6 91 -39z"/>
<path d="M3384 2356 c-76 -76 -19 -184 114 -213 175 -40 156 -112 -28 -107
-97 2 -110 -2 -110 -37 0 -58 241 -58 300 1 84 84 38 169 -109 202 -181 40
-157 134 29 112 90 -11 100 -8 100 27 0 46 -252 59 -296 15z"/>
<path d="M4240 2170 c0 -197 3 -210 40 -210 37 0 40 13 40 210 0 197 -3 210
-40 210 -37 0 -40 -13 -40 -210z"/>
<path d="M4453 2367 c-46 -47 -9 -70 88 -57 104 14 159 -7 159 -62 0 -20 -29
-28 -101 -28 -142 0 -179 -24 -179 -118 0 -126 101 -179 219 -113 43 23 53 23
74 -6 48 -65 72 2 64 177 -6 133 -15 169 -46 192 -39 28 -252 40 -278 15z
m247 -246 c0 -48 -56 -81 -139 -81 -59 0 -89 65 -48 107 35 34 187 13 187 -26z"/>
<path d="M4889 2353 c-31 -80 1 -383 41 -383 37 0 40 11 34 143 l-6 142 84 34
c108 43 115 33 122 -159 5 -142 10 -160 44 -160 43 0 50 334 8 385 -28 34
-139 32 -187 -4 -50 -38 -69 -38 -69 -1 0 37 -57 40 -71 3z"/>
<path d="M1640 1380 l0 -500 200 0 200 0 0 500 0 500 -200 0 -200 0 0 -500z"/>
<path d="M4837 1615 c-10 -372 -62 -435 -362 -435 l-149 0 -22 -134 c-26 -157
-26 -158 136 -179 585 -77 775 93 795 708 l10 305 -201 0 -200 0 -7 -265z
m209 -288 c-6 -15 -18 -27 -28 -27 -10 0 -18 -10 -18 -21 0 -12 9 -16 20 -9
11 7 20 3 20 -9 0 -11 -10 -21 -22 -21 -12 0 -18 -12 -12 -26 5 -14 -3 -43
-18 -64 -16 -21 -28 -30 -28 -20 0 10 -14 0 -31 -21 -18 -22 -26 -28 -19 -14
7 14 3 25 -9 25 -11 0 -21 -13 -21 -30 0 -17 -18 -30 -40 -30 -22 0 -40 9 -40
20 0 11 11 18 24 15 13 -3 25 9 26 25 1 17 14 27 28 24 17 -3 22 6 16 24 -13
33 32 80 55 57 8 -8 13 -6 10 5 -2 11 -2 25 0 30 2 6 7 26 11 46 11 58 54 101
71 72 9 -14 11 -36 5 -51z"/>
</g>
</svg>
