<svg width="128" height="29" viewBox="0 0 128 29" fill="none" xmlns="http://www.w3.org/2000/svg" data-testid="header-logo"><defs><clipPath id="clip0"><rect width="128" height="29" fill="white"></rect></clipPath></defs><g clip-path="url(#clip0)"><path d="M2.39228 29.0012H0V7.48462L6.87228 17.1532L6.85609 24.5845C6.85725 25.1633 6.74271 25.7368 6.51901 26.272C6.29531 26.8072 5.96683 27.2938 5.55233 27.7039C5.13783 28.1141 4.64541 28.4397 4.10321 28.6623C3.56101 28.8849 2.97963 29 2.39228 29.0012Z" fill="#99C3FF"></path><path d="M14.0653 16.6849C13.4453 16.9949 12.7596 17.1554 12.0644 17.1532H6.87375L0 7.48462H5.20828C5.92513 7.48518 6.6313 7.65601 7.26695 7.98262C7.90261 8.30923 8.44904 8.78201 8.85995 9.36092L10.6255 11.8361L14.0653 16.6849Z" fill="#73A6FF"></path><path d="M26.4823 4.89852e-07L15.7303 15.2627C15.3049 15.8666 14.7322 16.3553 14.0648 16.6837C13.4449 16.9937 12.7591 17.1542 12.0639 17.1521H6.87329L10.6177 11.8349L17.6253 1.885C18.0361 1.3029 18.5837 0.82743 19.2213 0.499183C19.859 0.170935 20.5678 -0.00033429 21.2873 4.89852e-07H26.4823Z" fill="#4E66F2"></path><path d="M26.45 28.9997H21.2432C20.5266 28.9992 19.8206 28.8284 19.1851 28.5018C18.5497 28.1752 18.0035 27.7023 17.593 27.1234L12.0537 19.3311H17.2605C17.9772 19.3315 18.6832 19.5023 19.3186 19.8289C19.9541 20.1555 20.5002 20.6284 20.9107 21.2074L26.45 28.9997Z" fill="#73A6FF"></path><path d="M56.7706 11.762H52.9261V28.798H56.7706V11.762Z" fill="#272934"></path><path d="M54.847 9.02036C56.1942 9.02036 57.2864 7.94401 57.2864 6.61626C57.2864 5.28851 56.1942 4.21216 54.847 4.21216C53.4998 4.21216 52.4077 5.28851 52.4077 6.61626C52.4077 7.94401 53.4998 9.02036 54.847 9.02036Z" fill="#272934"></path><path d="M45.8491 28.7991H50.5365L43.548 19.0943L50.0966 11.7631H45.3032L39.3799 18.3954V4.79004H35.5355V28.7991H39.3799V23.7604L40.9409 22.0117L45.8491 28.7991Z" fill="#272934"></path><path d="M91.3072 11.6125C90.4164 11.6133 89.5347 11.7908 88.715 12.1346C87.8952 12.4784 87.1542 12.9814 86.5359 13.6135C85.5718 12.6263 84.3169 11.9632 82.949 11.7183C81.581 11.4734 80.1696 11.6591 78.9148 12.2491V11.7619H75.0704V18.2869V28.7936H78.9148V18.2898C78.9148 16.6948 80.1933 15.3999 81.7646 15.3999C83.3359 15.3999 84.6145 16.7049 84.6145 18.2912V28.7979H88.4589V18.2912C88.4589 16.6962 89.7359 15.3999 91.3072 15.3999C92.8785 15.3999 94.1571 16.7049 94.1571 18.2912V28.7979H98.0015V18.2912C98.0015 14.6082 94.9986 11.6125 91.3072 11.6125Z" fill="#272934"></path><path d="M108.464 22.1313H116.601C116.732 21.5112 116.797 20.8796 116.797 20.2463C116.797 15.4106 113.066 11.4912 108.464 11.4912C103.862 11.4912 100.129 15.4062 100.129 20.2463C100.129 25.0864 104.057 29 108.662 29C111.311 29 113.959 27.7051 115.482 25.6882L111.989 23.7814C111.185 24.5427 109.827 25.0067 108.659 25.0067C107.727 24.9951 106.819 24.7167 106.044 24.2055C105.27 23.6942 104.663 22.9721 104.297 22.127L108.464 22.1313ZM108.464 15.3004C110.331 15.3004 111.933 16.5604 112.614 18.3454H104.313C104.994 16.5604 106.597 15.3004 108.464 15.3004Z" fill="#272934"></path><path d="M124.439 17.9079V15.2558H128V11.7758H124.439V7.81299L120.594 8.93384V11.7686H117.908V15.2486H120.594V25.0854C120.594 26.0687 120.99 27.0118 121.696 27.7071C122.402 28.4024 123.358 28.793 124.356 28.793H128V25.0114H125.779C125.603 25.0114 125.428 24.9772 125.266 24.9107C125.103 24.8443 124.955 24.7468 124.831 24.624C124.706 24.5012 124.607 24.3554 124.54 24.195C124.473 24.0346 124.438 23.8626 124.439 23.689V17.9079Z" fill="#272934"></path><path d="M72.4142 24.0085C72.3627 25.225 71.786 26.3908 70.7958 27.2869C69.5806 28.3846 67.8636 28.9994 66.0422 28.9994C65.9274 28.9994 65.8097 28.9994 65.6935 28.9921C62.8496 28.8689 60.3587 27.2202 59.6348 24.98L59.5907 24.8422L63.4719 23.4575C63.5431 23.6984 63.6367 23.9323 63.7514 24.1564C63.7911 24.2333 63.8368 24.307 63.8883 24.3768V24.3855C63.8883 24.3956 63.903 24.4072 63.9103 24.4174C63.9501 24.4667 63.9839 24.5087 64.0207 24.5464C64.4312 24.9814 65.1124 25.2598 65.8465 25.2903C66.5807 25.3207 67.2913 25.1018 67.7356 24.7001C67.8641 24.5912 67.9693 24.4582 68.045 24.3088C68.1208 24.1595 68.1657 23.9967 68.177 23.8301C68.1947 23.4096 67.9725 23.0065 67.5473 22.689C67.4652 22.6277 67.3786 22.5725 67.2884 22.5237C66.8182 22.2879 66.3253 22.0989 65.8171 21.9596C65.5729 21.8828 65.3198 21.8045 65.0741 21.716C64.4146 21.4652 63.7697 21.1787 63.1423 20.8576L63.0791 20.8257L63.0438 20.8069L62.9113 20.7387C62.7966 20.6788 62.6877 20.6179 62.5847 20.556L62.57 20.5473C62.5332 20.5256 62.4964 20.5053 62.4626 20.4806C62.1846 20.3067 61.9218 20.1103 61.6769 19.8934C61.2504 19.5178 60.8878 19.0772 60.6029 18.5884C60.5735 18.5391 60.5455 18.4854 60.5191 18.4347C60.2724 17.9585 60.1112 17.4439 60.0424 16.9136L60.0306 16.8034C60.0306 16.7773 60.0306 16.7527 60.0306 16.728C60.0194 16.5722 60.0169 16.4158 60.0233 16.2597C60.0586 15.6626 60.2137 15.0784 60.4796 14.5408C60.7456 14.0032 61.117 13.5229 61.5725 13.1277C62.8069 12.0126 64.5827 11.421 66.4438 11.4993C69.123 11.6153 71.4314 13.0943 72.1818 15.1997L72.2318 15.3447L68.614 16.6352L68.5536 16.5134C68.4407 16.2832 68.2966 16.0691 68.1255 15.8769C67.9791 15.7096 67.8097 15.5632 67.6223 15.4419L67.6003 15.4259L67.5664 15.4056L67.5311 15.3694L67.5032 15.3549L67.459 15.3302C67.4483 15.3263 67.438 15.3214 67.4281 15.3157L67.3678 15.2882C67.029 15.1375 66.6637 15.0533 66.2923 15.0402C65.5905 15.0083 64.9181 15.22 64.4959 15.6014C64.3725 15.7044 64.2713 15.8307 64.1983 15.9729C64.1253 16.1152 64.0819 16.2703 64.0707 16.4293C64.0718 16.6263 64.1189 16.8203 64.2085 16.9963C64.2981 17.1724 64.4276 17.3257 64.5871 17.4443L64.6033 17.4574C64.82 17.6313 65.0614 17.7729 65.3198 17.8779C66.0713 18.2015 66.8489 18.4629 67.6444 18.6594L67.9387 18.7392C68.8645 18.9941 69.7274 19.4339 70.4736 20.0311C71.7698 21.0838 72.479 22.5338 72.4142 24.0085Z" fill="#272934"></path></g></svg>