<?xml version="1.0" standalone="no"?>
<!DOCTYPE svg PUBLIC "-//W3C//DTD SVG 20010904//EN"
 "http://www.w3.org/TR/2001/REC-SVG-20010904/DTD/svg10.dtd">
<svg version="1.0" xmlns="http://www.w3.org/2000/svg"
 width="300.000000pt" height="225.000000pt" viewBox="0 0 300.000000 225.000000"
 preserveAspectRatio="xMidYMid meet">
<metadata>
Created by potrace 1.10, written by Peter Selinger 2001-2011
</metadata>
<g transform="translate(0.000000,225.000000) scale(0.100000,-0.100000)"
fill="#4b91f0" stroke="none">
<path d="M380 1743 l0 -88 220 3 220 3 0 -175 0 -176 100 0 100 0 0 175 0 176
221 -1 220 -1 2 85 2 86 -542 0 -543 0 0 -87z m1066 0 l1 -63 -191 -1 c-203
-2 -233 -3 -242 -12 -3 -3 -7 -76 -10 -163 -2 -86 -5 -158 -6 -160 -6 -5 -34
-6 -93 -5 l-60 1 -3 158 c-2 86 -6 160 -10 164 -6 5 -302 19 -410 18 -22 0
-23 3 -21 58 2 31 4 60 6 63 2 4 236 6 520 5 l518 -1 1 -62z"/>
<path d="M2420 1570 l0 -260 100 0 100 0 0 260 0 260 -100 0 -100 0 0 -260z
m175 0 l0 -234 -68 -1 c-37 0 -72 2 -77 5 -13 8 -14 445 -1 466 1 1 34 1 73 0
l72 -1 1 -235z"/>
<path d="M380 1250 c0 -17 7 -20 45 -20 l45 0 0 -120 c0 -114 1 -120 21 -120
19 0 20 5 17 120 l-3 120 48 0 c40 0 47 3 47 20 0 19 -7 20 -110 20 -103 0
-110 -1 -110 -20z"/>
<path d="M635 1130 c0 -133 1 -140 20 -140 18 0 20 6 17 68 l-4 69 37 17 c57
27 65 19 65 -74 0 -76 1 -80 23 -80 21 0 22 2 19 87 -2 49 -8 94 -14 100 -16
19 -59 16 -97 -8 l-33 -20 4 60 c4 56 3 61 -16 61 -20 0 -21 -5 -21 -140z"/>
<path d="M2010 1145 l0 -125 -25 0 c-18 0 -25 -5 -25 -20 0 -15 7 -20 29 -20
54 0 61 18 61 161 0 122 -1 129 -20 129 -19 0 -20 -7 -20 -125z"/>
<path d="M2120 1245 c0 -18 5 -25 20 -25 15 0 20 7 20 25 0 18 -5 25 -20 25
-15 0 -20 -7 -20 -25z"/>
<path d="M894 1167 c-23 -21 -27 -31 -27 -82 0 -51 4 -61 27 -82 35 -30 93
-31 130 -2 23 18 26 27 26 84 0 57 -3 66 -26 84 -37 29 -95 28 -130 -2z m97
-17 c15 -9 19 -22 19 -66 0 -48 -3 -56 -25 -66 -19 -8 -31 -8 -50 0 -22 10
-25 18 -25 65 0 72 28 95 81 67z"/>
<path d="M1110 1186 c-1 -1 -2 -45 -3 -99 -2 -91 -1 -97 18 -97 18 0 20 6 17
70 l-4 70 36 16 c55 27 68 9 64 -82 -3 -63 -1 -74 15 -78 15 -4 17 4 17 70 0
72 1 74 31 89 50 27 59 16 59 -74 0 -71 2 -79 20 -84 20 -5 21 -2 18 91 -3 95
-3 97 -30 106 -21 7 -36 6 -62 -7 -30 -14 -36 -14 -46 -1 -18 20 -63 17 -94
-7 -25 -20 -26 -20 -26 -1 0 10 -7 19 -15 19 -8 0 -15 -1 -15 -1z"/>
<path d="M1478 1183 c-10 -2 -18 -11 -18 -19 0 -12 10 -13 50 -8 52 7 80 -5
80 -32 0 -10 -15 -14 -53 -14 -61 0 -87 -19 -87 -63 0 -29 31 -67 54 -67 23 0
76 22 76 31 0 5 5 9 11 9 6 0 9 -7 5 -15 -4 -10 1 -15 14 -15 18 0 20 7 20 80
0 100 -15 121 -87 119 -27 -1 -56 -3 -65 -6z m112 -124 c0 -23 -58 -53 -84
-43 -16 6 -22 45 -9 57 3 4 26 7 50 7 37 0 43 -3 43 -21z"/>
<path d="M1696 1177 c-12 -9 -17 -23 -14 -46 3 -38 13 -46 76 -61 83 -21 64
-64 -25 -57 -37 3 -53 0 -53 -9 0 -16 23 -24 70 -24 74 0 107 28 93 79 -5 19
-28 31 -93 48 -25 6 -35 14 -35 28 0 18 7 20 63 20 52 0 62 3 62 18 0 14 -10
17 -63 17 -36 0 -71 -6 -81 -13z"/>
<path d="M2120 1084 c0 -97 1 -102 20 -97 18 5 20 14 20 104 0 92 -1 98 -20
96 -19 -1 -20 -8 -20 -103z"/>
<path d="M2238 1183 c-10 -2 -18 -11 -18 -19 0 -12 10 -13 50 -8 52 7 80 -5
80 -32 0 -10 -15 -14 -54 -14 -65 0 -86 -16 -86 -65 0 -62 72 -83 123 -38 15
15 17 15 17 0 0 -11 8 -17 21 -17 20 0 21 4 18 86 -3 71 -7 88 -23 100 -19 13
-90 17 -128 7z m112 -124 c0 -23 -58 -53 -84 -43 -16 6 -22 45 -9 57 3 4 26 7
50 7 37 0 43 -3 43 -21z"/>
<path d="M2449 1188 c0 -2 -1 -47 -2 -101 -2 -91 -1 -97 18 -97 18 0 20 6 17
68 l-4 69 37 17 c57 27 65 19 65 -73 0 -70 2 -79 20 -84 19 -5 20 0 20 88 0
70 -4 96 -15 105 -19 16 -81 7 -105 -15 -16 -15 -18 -14 -23 5 -4 16 -25 29
-28 18z"/>
<path d="M820 690 l0 -250 100 0 100 0 0 250 0 250 -100 0 -100 0 0 -250z
m181 210 c1 -11 1 -31 1 -45 0 -14 0 -108 -1 -209 l-1 -184 -77 2 -78 1 -2
215 c-2 118 -1 221 2 228 3 8 29 12 80 12 68 0 75 -2 76 -20z"/>
<path d="M2418 808 c-2 -107 -7 -138 -21 -160 -28 -41 -75 -58 -159 -58 l-75
0 -10 -67 c-6 -38 -9 -70 -7 -71 9 -12 93 -22 177 -23 87 -1 105 2 153 26 107
52 135 118 142 333 l4 152 -100 0 -100 0 -4 -132z m176 96 c4 -10 2 -13 -7 -8
-9 6 -9 5 0 -7 15 -19 10 -229 -8 -287 -32 -107 -145 -171 -279 -157 -126 12
-130 14 -130 49 0 68 7 76 66 76 65 0 141 25 165 53 25 30 31 73 38 280 1 15
11 17 75 17 58 0 75 -3 80 -16z"/>
</g>
</svg>
